<?xml version="1.0" standalone="no"?>
<!DOCTYPE svg PUBLIC "-//W3C//DTD SVG 20010904//EN"
 "http://www.w3.org/TR/2001/REC-SVG-20010904/DTD/svg10.dtd">
<svg version="1.0" xmlns="http://www.w3.org/2000/svg"
 width="512.000000pt" height="512.000000pt" viewBox="0 0 512.000000 512.000000"
 preserveAspectRatio="xMidYMid meet">
<metadata>
Created by potrace 1.11, written by Peter Selinger 2001-2013
</metadata>
<g transform="translate(0.000000,512.000000) scale(0.100000,-0.100000)"
fill="#000000" stroke="none">
<path d="M2419 4836 c-2 -2 -42 -7 -89 -10 -47 -4 -98 -9 -115 -11 -46 -7
-107 -16 -139 -20 -15 -3 -35 -7 -45 -9 -9 -3 -29 -8 -46 -11 -163 -28 -401
-107 -590 -196 -27 -12 -52 -23 -55 -24 -3 0 -21 -10 -41 -23 -20 -12 -39 -22
-42 -22 -24 0 -270 -163 -392 -259 -78 -61 -292 -272 -345 -340 -19 -24 -40
-48 -45 -55 -28 -30 -128 -181 -177 -266 -190 -330 -283 -678 -283 -1055 0
-112 8 -242 19 -295 1 -8 6 -37 10 -65 12 -74 43 -199 74 -290 14 -44 27 -82
27 -85 0 -3 11 -27 23 -54 12 -27 22 -52 22 -55 0 -15 99 -200 153 -287 128
-206 302 -404 497 -564 41 -34 84 -68 94 -77 35 -28 240 -160 301 -193 122
-66 259 -130 278 -130 7 0 17 -4 23 -10 17 -17 320 -111 439 -136 65 -14 101
-20 166 -29 26 -3 57 -8 68 -10 57 -11 221 -20 356 -20 166 0 293 9 425 30 14
3 42 7 64 10 21 4 48 9 60 11 52 12 62 14 83 18 72 15 316 89 378 116 294 126
475 230 674 388 90 71 270 244 336 322 303 360 480 770 522 1215 13 140 7 362
-12 490 -11 68 -14 83 -30 150 -9 39 -19 80 -21 93 -16 82 -157 437 -184 462
-3 3 -16 25 -29 50 -213 392 -648 786 -1093 989 -186 85 -407 160 -563 191
-22 5 -51 11 -65 13 -14 3 -41 8 -60 11 -19 3 -44 7 -55 10 -11 2 -51 7 -90
11 -38 4 -83 10 -100 12 -42 5 -381 13 -386 9z"/>
</g>
</svg>
